<?xml version="1.0" encoding="UTF-8"?>
<svg version="1.1" xmlns="http://www.w3.org/2000/svg" width="100" height="100">
<path d="M0 0 C0.66 0 1.32 0 2 0 C6.94872529 13.78992621 10.20514175 27.28141785 11 42 C11.64066406 41.14277344 12.28132813 40.28554688 12.94140625 39.40234375 C19.8166439 30.27938095 26.62362971 22.64869893 36 16 C37.32904508 19.98713524 36.22154227 22.80221701 35.0625 26.6875 C34.84376221 27.4312085 34.62502441 28.17491699 34.3996582 28.94116211 C31.8662293 37.09297862 28.05853192 44.51739648 24 52 C26.24485026 51.45078485 28.47307494 50.86786764 30.69921875 50.24609375 C37.01260071 48.53776687 42.46454585 47.67322729 49 48 C44.66072972 57.68319921 34.54511093 63.37273183 26 69 C26.78032593 69.7410498 26.78032593 69.7410498 27.57641602 70.49707031 C29.91802535 72.73497568 32.24025874 74.99201047 34.5625 77.25 C35.38169922 78.02730469 36.20089844 78.80460937 37.04492188 79.60546875 C38.20024414 80.73662109 38.20024414 80.73662109 39.37890625 81.890625 C40.45507202 82.92751465 40.45507202 82.92751465 41.55297852 83.98535156 C43 86 43 86 42.85131836 88.13183594 C42 90 42 90 40 92 C37.04552242 91.85783894 36.06396763 91.06583439 33.9921875 88.93359375 C33.29351562 88.10988281 32.59484375 87.28617187 31.875 86.4375 C28.74912975 83.06346959 28.74912975 83.06346959 24.578125 81.546875 C22.92835223 81.64144796 21.28040093 81.77500948 19.63671875 81.9453125 C14.78429253 82.04595541 10.36811288 79.97397479 6 78 C5.67 77.67 5.34 77.34 5 77 C4.67 80.3 4.34 83.6 4 87 C1.525 87.495 1.525 87.495 -1 88 C-1 84.04 -1 80.08 -1 76 C-2.4025 76.804375 -3.805 77.60875 -5.25 78.4375 C-14.20285656 83.57222656 -23.28423143 82.62842048 -33 80 C-28.93265026 75.40783094 -24.43614072 72.7832093 -19 70 C-19.85980469 69.63390625 -20.71960938 69.2678125 -21.60546875 68.890625 C-28.72504263 65.62975147 -34.5674851 62.11255525 -40.3125 56.75 C-40.86897217 56.23083008 -41.42544434 55.71166016 -41.9987793 55.17675781 C-44.42763118 52.82164644 -45.91568667 51.25294 -47 48 C-37.79895125 47.53994756 -29.48548732 49.43857284 -21 53 C-21.50789063 52.12601563 -22.01578125 51.25203125 -22.5390625 50.3515625 C-26.53694595 43.26884422 -29.61131731 36.50973565 -31.875 28.6875 C-34.10467067 21.08784523 -36.89089154 17.00565141 -43.12109375 11.9453125 C-44.05115234 10.98238281 -44.05115234 10.98238281 -45 10 C-44.87235136 6.96973224 -44.16408189 6.16408189 -42 4 C-38.7735082 4.33685595 -37.12200524 5.50796837 -34.88378906 7.77563477 C-34.30348938 8.35616104 -33.7231897 8.93668732 -33.12530518 9.5348053 C-32.51161072 10.16398361 -31.89791626 10.79316193 -31.265625 11.44140625 C-30.62759949 12.08367661 -29.98957397 12.72594696 -29.33221436 13.38768005 C-27.29765882 15.43901726 -25.27378621 17.50054273 -23.25 19.5625 C-21.87178509 20.95576234 -20.49288675 22.34834898 -19.11328125 23.74023438 C-15.73420954 27.15236865 -12.36468136 30.57367707 -9 34 C-8.80422363 33.04130005 -8.80422363 33.04130005 -8.60449219 32.06323242 C-7.99484813 29.10282865 -7.37248811 26.14522859 -6.75 23.1875 C-6.54503906 22.18267578 -6.34007812 21.17785156 -6.12890625 20.14257812 C-4.65005521 13.17405277 -2.60827925 6.62787647 0 0 Z M9 44 C10 46 10 46 10 46 Z " fill="#2AAD70" transform="translate(51,2)"/>
<path d="M0 0 C0.66 0 1.32 0 2 0 C6.94872529 13.78992621 10.20514175 27.28141785 11 42 C11.64066406 41.14277344 12.28132813 40.28554688 12.94140625 39.40234375 C19.8166439 30.27938095 26.62362971 22.64869893 36 16 C37.32904508 19.98713524 36.22154227 22.80221701 35.0625 26.6875 C34.84376221 27.4312085 34.62502441 28.17491699 34.3996582 28.94116211 C31.8662293 37.09297862 28.05853192 44.51739648 24 52 C26.24485026 51.45078485 28.47307494 50.86786764 30.69921875 50.24609375 C37.01260071 48.53776687 42.46454585 47.67322729 49 48 C45.05606558 56.82504139 35.48620986 63.89150391 27 68 C21.60547054 67.93574432 18.57217426 64.32060382 14.9140625 60.796875 C14.25288422 60.16324036 13.59170593 59.52960571 12.91049194 58.87677002 C11.51808475 57.53085537 10.1315327 56.17886055 8.75048828 54.82128906 C6.64113975 52.76572819 4.48891325 50.76327379 2.33203125 48.7578125 C-7.4918902 39.31894197 -7.4918902 39.31894197 -8.77416992 33.46679688 C-8.56350903 30.09424226 -7.96724836 27.23231019 -7 24 C-6.80986328 23.10506836 -6.61972656 22.21013672 -6.42382812 21.28808594 C-5.89473263 18.82371462 -5.25399165 16.4232448 -4.5625 14 C-4.34529297 13.19433594 -4.12808594 12.38867188 -3.90429688 11.55859375 C-2.8181252 7.59879671 -1.63638254 3.77509645 0 0 Z M9 44 C10 46 10 46 10 46 Z " fill="#22A467" transform="translate(51,2)"/>
<path d="M0 0 C3.20760642 0.33832431 4.86406031 1.49143013 7.09692383 3.74047852 C7.96351372 4.60256676 7.96351372 4.60256676 8.84761047 5.48207092 C9.76802376 6.42100441 9.76802376 6.42100441 10.70703125 7.37890625 C11.67246101 8.34714577 11.67246101 8.34714577 12.65739441 9.33494568 C14.0199875 10.70426156 15.37897772 12.07717066 16.73461914 13.45336914 C18.78750676 15.53713088 20.85060293 17.61030064 22.91601562 19.68164062 C24.24280661 21.0176146 25.56899726 22.35418509 26.89453125 23.69140625 C27.50206741 24.30319229 28.10960358 24.91497833 28.73554993 25.54530334 C32.4163725 29.28635188 35.9055772 33.14870695 39.34040833 37.11604309 C41.68402102 39.7764959 44.14638841 42.27612153 46.65234375 44.78515625 C47.15617081 45.28994003 47.65999786 45.79472382 48.17909241 46.31480408 C49.23234524 47.36872962 50.28683045 48.42142499 51.3425293 49.47290039 C52.93458966 51.05959946 54.5212299 52.65157742 56.10742188 54.24414062 C61.01117731 59.15105468 65.95564107 63.95847955 71.22827148 68.47290039 C74.1006495 70.94867888 76.84415685 73.54476185 79.5625 76.1875 C80.37944336 76.94836914 80.37944336 76.94836914 81.21289062 77.72460938 C82.75390625 79.23046875 82.75390625 79.23046875 85 82 C84.95123013 85.10501484 84.20961172 85.79038828 82 88 C78.13999259 87.74808373 76.28221983 85.6243946 73.6875 82.9375 C72.96949219 82.20402344 72.25148438 81.47054687 71.51171875 80.71484375 C69.65011295 78.70268818 67.8682025 76.67313818 66.09277344 74.58837891 C60.99649025 68.75771072 55.48233079 63.33819545 50.00390625 57.87109375 C48.84465727 56.71116945 47.68555663 55.55109688 46.52659607 54.3908844 C44.10846178 51.9712839 41.6885492 49.55348029 39.26733398 47.13696289 C36.18323528 44.05856078 33.10364906 40.97568977 30.02539158 37.89144802 C27.63612967 35.49855131 25.24446486 33.10806762 22.85209465 30.71827888 C21.71640839 29.58325383 20.58144814 28.44750181 19.44726753 27.31097221 C13.47500599 21.32905452 7.47559208 15.44407295 1 10 C-1.5625 7.8125 -1.5625 7.8125 -3 6 C-2.82246387 2.98188578 -2.16264785 2.16264785 0 0 Z " fill="#E22130" transform="translate(9,6)"/>
<path d="M0 0 C1.32904508 3.98713524 0.22154227 6.80221701 -0.9375 10.6875 C-1.15623779 11.4312085 -1.37497559 12.17491699 -1.6003418 12.94116211 C-4.1337707 21.09297862 -7.94146808 28.51739648 -12 36 C-9.75514974 35.45078485 -7.52692506 34.86786764 -5.30078125 34.24609375 C1.01260071 32.53776687 6.46454585 31.67322729 13 32 C9.05606558 40.82504139 -0.51379014 47.89150391 -9 52 C-12.67143479 52.04532636 -13.86657262 51.11394893 -16.67578125 48.71484375 C-17.54589844 47.79832031 -18.41601562 46.88179687 -19.3125 45.9375 C-20.19550781 45.01839844 -21.07851562 44.09929688 -21.98828125 43.15234375 C-22.65214844 42.44207031 -23.31601562 41.73179688 -24 41 C-22.55108756 37.03754738 -20.66399641 33.61959593 -18.4453125 30.03515625 C-18.10249237 29.47936386 -17.75967224 28.92357147 -17.40646362 28.35093689 C-16.68377024 27.18082718 -15.95921864 26.01186333 -15.23291016 24.84399414 C-14.13184523 23.07350697 -13.03611974 21.29981049 -11.94140625 19.52539062 C-9.29022229 15.23842173 -6.64070563 10.95859697 -3.83935547 6.76733398 C-2.36321959 4.54646856 -1.11437744 2.41448444 0 0 Z " fill="#22A568" transform="translate(87,18)"/>
<path d="M0 0 C6.78376359 5.55035203 12.85522968 11.76442027 19 18 C18.67 18.66 18.34 19.32 18 20 C10.51721294 20.49067456 4.84714782 19.04453537 -2 16 C-2.495 15.505 -2.495 15.505 -3 15 C-3.33 18.3 -3.66 21.6 -4 25 C-5.65 25.33 -7.3 25.66 -9 26 C-9 22.04 -9 18.08 -9 14 C-10.4025 14.804375 -11.805 15.60875 -13.25 16.4375 C-19.9036517 20.25356495 -26.63406092 21.09218229 -34.20703125 19.55078125 C-35.82100244 19.08729869 -37.41399916 18.55165247 -39 18 C-36.62018254 15.62018254 -35.46594918 15.51685132 -32.203125 14.9296875 C-31.2440625 14.75566406 -30.285 14.58164063 -29.296875 14.40234375 C-28.29140625 14.22832031 -27.2859375 14.05429688 -26.25 13.875 C-25.26 13.69324219 -24.27 13.51148437 -23.25 13.32421875 C-18.45098493 12.47091794 -13.89599398 11.75020439 -9 12 C-9 11.34 -9 10.68 -9 10 C-8.01 9.67 -7.02 9.34 -6 9 C-4.3258231 6.91302442 -4.3258231 6.91302442 -2.8125 4.4375 C-2.28269531 3.61121094 -1.75289062 2.78492187 -1.20703125 1.93359375 C-0.80871094 1.29550781 -0.41039062 0.65742187 0 0 Z " fill="#22A468" transform="translate(59,64)"/>
<path d="M0 0 C3.68374914 2.55815912 5.64633374 4.98609887 7.79492188 8.87915039 C10.23264329 13.16936228 12.96274388 17.28442376 15.625 21.4375 C16.86873707 23.38916522 18.11222458 25.3409895 19.35546875 27.29296875 C21.61971815 30.84324989 23.89347928 34.38708623 26.17578125 37.92578125 C27.09663824 39.36700604 28.01722989 40.8084004 28.9375 42.25 C29.36820801 42.91056396 29.79891602 43.57112793 30.24267578 44.25170898 C31.22374055 45.79683436 32.12191556 47.39411451 33 49 C32.505 49.99 32.505 49.99 32 51 C31.35933594 50.41992188 30.71867187 49.83984375 30.05859375 49.2421875 C29.19363281 48.46101563 28.32867187 47.67984375 27.4375 46.875 C26.06271484 45.62396484 26.06271484 45.62396484 24.66015625 44.34765625 C22.61230864 42.54037811 20.56330268 40.93214862 18.375 39.3125 C8.30554305 30.66461345 1.71731624 12.79104508 0 0 Z " fill="#22A467" transform="translate(17,22)"/>
<path d="M0 0 C29.94373205 25.27166038 29.94373205 25.27166038 31.5 34.2890625 C31.67361819 38.37387811 31.09158439 42.07135088 30 46 C25.19598617 41.71006883 22.16828019 36.74773327 18.875 31.25 C17.73335187 29.37143409 16.59009585 27.49384448 15.4453125 25.6171875 C14.87329102 24.67842773 14.30126953 23.73966797 13.71191406 22.77246094 C10.68329162 17.86757839 7.52026209 13.05030782 4.33935547 8.24316406 C2.54823505 5.5135155 1.03751588 3.11254763 0 0 Z " fill="#34C07E" transform="translate(22,27)"/>
<path d="M0 0 C1 3 1 3 0.18652344 4.81494141 C-0.25143555 5.48702637 -0.68939453 6.15911133 -1.140625 6.8515625 C-1.87394043 7.99371216 -1.87394043 7.99371216 -2.62207031 9.15893555 C-3.42789551 10.37963745 -3.42789551 10.37963745 -4.25 11.625 C-4.78979492 12.4600708 -5.32958984 13.2951416 -5.88574219 14.15551758 C-7.01444934 15.89936027 -8.14767903 17.64028313 -9.28515625 19.37841797 C-10.95039519 21.92416622 -12.60254334 24.47787252 -14.25 27.03515625 C-16.82415693 31.02945273 -19.40900806 35.01660491 -22 39 C-22.99 38.34 -23.98 37.68 -25 37 C-26.21812169 30.30033072 -24.02833032 26.4346998 -20.26171875 20.94140625 C-14.30391649 13.19317637 -7.64104919 6.11283935 0 0 Z " fill="#31C381" transform="translate(85,19)"/>
<path d="M0 0 C0.33 0 0.66 0 1 0 C1 14.85 1 29.7 1 45 C-6 39 -6 39 -8 37 C-8.77396108 24.95399043 -4.76052735 10.98242588 0 0 Z " fill="#33C381" transform="translate(51,2)"/>
<path d="M0 0 C5.97059042 2.26828164 11.55679871 5.29526559 17.21801758 8.22998047 C19.16213311 9.23686217 21.1092265 10.23779755 23.05664062 11.23828125 C38.25800849 19.08060928 38.25800849 19.08060928 44 23 C44 23.33 44 23.66 44 24 C25.69408409 22.54775615 13.63046526 16.38365814 1 3 C0.67 2.01 0.34 1.02 0 0 Z " fill="#21A668" transform="translate(4,50)"/>
<path d="M0 0 C2.93230193 1.32120828 4.98664899 2.74638197 7.234375 5.0390625 C8.09482422 5.90917969 8.09482422 5.90917969 8.97265625 6.796875 C9.55917969 7.40015625 10.14570312 8.0034375 10.75 8.625 C11.35199219 9.23601562 11.95398438 9.84703125 12.57421875 10.4765625 C14.05405305 11.97988624 15.52764676 13.48934856 17 15 C16.67 15.66 16.34 16.32 16 17 C8.67487261 17.48033622 2.59406977 16.37030233 -4 13 C-6 10 -6 10 -5.9375 7.625 C-4.70898441 4.18515634 -2.68789504 2.4122135 0 0 Z " fill="#25A669" transform="translate(61,67)"/>
<path d="M0 0 C6.6801925 -0.45546767 12.61117688 1.1373186 19 3 C19.69867187 3.19335938 20.39734375 3.38671875 21.1171875 3.5859375 C26.56265408 5.44949717 28.93085829 9.45377857 32 14 C33.32481269 15.67344761 34.65407903 17.34348188 36 19 C31.94698869 18.2709037 28.48250941 16.34528742 24.86328125 14.47265625 C24.18323532 14.12367783 23.50318939 13.7746994 22.80253601 13.41514587 C21.37011015 12.67838537 19.93880078 11.93945062 18.50854492 11.19848633 C16.31348602 10.06301005 14.11309179 8.93839561 11.91210938 7.81445312 C10.52049743 7.09700533 9.12920983 6.378928 7.73828125 5.66015625 C7.07790359 5.32363541 6.41752594 4.98711456 5.73713684 4.64039612 C1.11465791 2.22931583 1.11465791 2.22931583 0 0 Z " fill="#32C27F" transform="translate(6,50)"/>
<path d="M0 0 C-3.94393442 8.82504139 -13.51379014 15.89150391 -22 20 C-24.67578125 19.96484375 -24.67578125 19.96484375 -27 19 C-28.04000996 17.69763406 -29.04567276 16.36639573 -30 15 C-29.43603516 14.72325439 -28.87207031 14.44650879 -28.29101562 14.16137695 C-25.69182688 12.88280387 -23.09591871 11.59769852 -20.5 10.3125 C-19.613125 9.87744141 -18.72625 9.44238281 -17.8125 8.99414062 C-12.8757143 6.54389772 -8.16490417 3.96436146 -3.57617188 0.90698242 C-2 0 -2 0 0 0 Z " fill="#22A568" transform="translate(100,50)"/>
<path d="M0 0 C-3.90151466 4.3639944 -9.32435157 6.57302443 -14.4375 9.25 C-15.48744141 9.8171875 -16.53738281 10.384375 -17.61914062 10.96875 C-18.63041016 11.49984375 -19.64167969 12.0309375 -20.68359375 12.578125 C-21.60712646 13.06700195 -22.53065918 13.55587891 -23.48217773 14.05957031 C-26.21772311 15.08132158 -27.3238759 15.04522019 -30 14 C-29.33333333 12.66666667 -28.66666667 11.33333333 -28 10 C-27.68095703 9.02353516 -27.68095703 9.02353516 -27.35546875 8.02734375 C-25.27874346 4.92123301 -22.67553223 4.47030756 -19.1875 3.3125 C-17.96417969 2.89613281 -16.74085937 2.47976562 -15.48046875 2.05078125 C-10.12289087 0.4332858 -5.60901738 -0.10998073 0 0 Z " fill="#32C380" transform="translate(98,50)"/>
<path d="M0 0 C2.32694964 0.37531446 4.65976685 0.71917202 7 1 C3.99538438 2.66918249 1.31794601 3.45297524 -2.0625 4.03515625 C-3.02414063 4.20466797 -3.98578125 4.37417969 -4.9765625 4.54882812 C-5.97429688 4.71833984 -6.97203125 4.88785156 -8 5.0625 C-9.97935709 5.40645805 -11.95853151 5.7514694 -13.9375 6.09765625 C-14.81277344 6.24726807 -15.68804688 6.39687988 -16.58984375 6.55102539 C-18.75514967 6.95438819 -20.87082725 7.43899262 -23 8 C-16.62166789 0.82437637 -9.3153607 -3.28777436 0 0 Z " fill="#30C17F" transform="translate(41,74)"/>
<path d="M0 0 C1.96370655 1.86092301 3.39275517 3.79577851 5 6 C2.72796198 5.7178711 0.45738316 5.42397144 -1.8125 5.125 C-3.70935547 4.88136719 -3.70935547 4.88136719 -5.64453125 4.6328125 C-9 4 -9 4 -12 2 C-3.36614173 -0.70866142 -3.36614173 -0.70866142 0 0 Z " fill="#35BF7E" transform="translate(69,73)"/>
<path d="M0 0 C1.65 1.65 3.3 3.3 5 5 C4.01 7.64 3.02 10.28 2 13 C1.34 13 0.68 13 0 13 C0 8.71 0 4.42 0 0 Z " fill="#24A266" transform="translate(52,57)"/>
<path d="M0 0 C2.97631671 2.44917615 3.51032844 4.36165595 4.0625 8.125 C4.85747607 13.14203384 5.86380083 18.04941791 7 23 C2.32307197 18.4380784 1.64614923 14.4153388 1 8 C0.81626942 6.49953363 0.62892605 4.99950402 0.4375 3.5 C0.293125 2.345 0.14875 1.19 0 0 Z " fill="#32B175" transform="translate(43,48)"/>
<path d="M0 0 C0.33 0.66 0.66 1.32 1 2 C-0.60049704 2.39036513 -2.20562371 2.76178619 -3.8125 3.125 C-4.70582031 3.33382812 -5.59914063 3.54265625 -6.51953125 3.7578125 C-9 4 -9 4 -12 2 C-7.8803623 0.70756464 -4.33168317 -0.26252625 0 0 Z " fill="#30B376" transform="translate(69,73)"/>
<path d="M0 0 C0.99 0.33 1.98 0.66 3 1 C1.7191375 4.64553172 0.83328987 6.16671013 -2 9 C-1.34 6.03 -0.68 3.06 0 0 Z " fill="#2EB173" transform="translate(56,62)"/>
<path d="M0 0 C1.41687119 4.25061356 0.19320039 6.71851625 -1 11 C-1.99 10.34 -2.98 9.68 -4 9 C-2.80100302 5.9168649 -1.52299523 2.93720508 0 0 Z " fill="#24B16F" transform="translate(87,18)"/>
</svg>
